<svg class="lds-mac" width="200px"  height="200px"  xmlns="http://www.w3.org/2000/svg" xmlns:xlink="http://www.w3.org/1999/xlink" viewBox="0 0 100 100" preserveAspectRatio="xMidYMid" style="background: none;"><g transform="rotate(-305.743 50 50)"><path d="M50 50Q90 30 90 50 A40 40 0 0 0 78.2842712474619 21.71572875253809 Q64.14213562373095 7.573593128807143 50 50" stroke="none" fill="#e6261f"></path><path d="M50 50Q92.42640687119285 64.14213562373095 78.2842712474619 78.2842712474619 A40 40 0 0 0 90 50 Q90 30 50 50" stroke="none" fill="#eb7532"></path><path d="M50 50Q70 90 50 90 A40 40 0 0 0 78.2842712474619 78.2842712474619 Q92.42640687119285 64.14213562373095 50 50" stroke="none" fill="#f7d038"></path><path d="M50 50Q35.85786437626905 92.42640687119285 21.7157287525381 78.2842712474619 A40 40 0 0 0 50 90 Q70 90 50 50" stroke="none" fill="#a3e048"></path><path d="M50 50Q10.000000000000002 70 10 50.00000000000001 A40 40 0 0 0 21.7157287525381 78.2842712474619 Q35.85786437626905 92.42640687119285 50 50" stroke="none" fill="#49da9a"></path><path d="M50 50Q7.573593128807142 35.857864376269056 21.71572875253809 21.7157287525381 A40 40 0 0 0 10 50.00000000000001 Q10.000000000000002 70 50 50" stroke="none" fill="#34bbe6"></path><path d="M50 50Q29.999999999999993 10.000000000000004 49.99999999999999 10 A40 40 0 0 0 21.71572875253809 21.7157287525381 Q7.573593128807142 35.857864376269056 50 50" stroke="none" fill="#4355db"></path><path d="M50 50Q64.14213562373095 7.573593128807143 78.2842712474619 21.71572875253809 A40 40 0 0 0 49.99999999999999 10 Q29.999999999999993 10.000000000000004 50 50" stroke="none" fill="#d23be7"></path><animateTransform attributeName="transform" type="rotate" values="0 50 50;-360 50 50" times="0;1" dur="1s" repeatCount="indefinite"></animateTransform></g></svg>